<?xml version="1.0" encoding="UTF-8"?>
<svg version="1.1" viewBox="0 0 318 93" xmlns="http://www.w3.org/2000/svg">
<g fill-rule="evenodd">
<g fill-rule="nonzero">
<path id="a" d="m54.604 43.046c4.9583-2.533 8.0607-6.9941 7.336-14.426-0.97591-10.157-9.7208-13.562-20.76-14.532l-0.002129-14.088h-8.5533l-0.0023952 13.717c-2.2504 0-4.5445 0.044341-6.8282 0.090285l-0.001863-13.806-8.5456-8.0134e-4 -0.0015968 14.084c-1.852 0.03793-3.6708 0.073991-5.4467 0.073991v-0.04167l-11.798-0.004808 0.0015968 9.1572s6.3164-0.11913 6.2124-0.0034725c3.4632 0.0024041 4.594 2.0191 4.9192 3.7599l0.0026614 16.049v22.544c-0.15249 1.0925-0.79414 2.8381-3.2157 2.8413 0.11018 0.09723-6.2219-0.0010685-6.2219-0.0010685l-1.6966 10.24h11.129c2.0737 0.002404 4.1112 0.034725 6.1102 0.050752l0.0074518 14.247 8.5434 0.002404-0.0023952-14.098c2.3505 0.048081 4.6193 0.068916 6.8354 0.065977l-0.0023952 14.032h8.553l0.0047904-14.224c14.377-0.82806 24.442-4.46 25.694-18 1.0086-10.901-4.1075-15.766-12.27-17.731zm-28.607-19.158c4.8239 0 19.995-1.5405 19.997 8.5648-0.002129 9.688-15.169 8.5562-19.997 8.5562v-17.121zm-0.0037258 44.643 0.0037258-18.878c5.7959-0.0016027 23.975-1.6724 23.977 9.4345 0.0023952 10.651-18.181 9.4388-23.981 9.443z"/>
<g transform="translate(259 7)">
<g transform="translate(29.5 40) scale(-1 1) rotate(180) translate(-29.5 -40)">
<path d="m24.383-1.9185e-13v5.1347c-7.9871 0.69388-14.298 2.9224-18.934 6.6939-2.1272 1.7306-3.532 3.7551-4.1942 6.0735-0.66224 2.3184-1.0736 5.3388-1.2342 9.0694h11.108c0.27092-3.3388 1.5553-6.0653 3.8731-8.1878 2.3179-2.1224 5.4485-3.5347 9.3818-4.2204v21.763l-2.1573 0.52245c-1.4951 0.34286-2.8095 0.68571-3.9534 1.0041-1.1439 0.32653-2.4082 0.72653-3.7929 1.2-1.3847 0.47347-2.6088 0.98776-3.6724 1.5265-1.0636 0.53878-2.1573 1.1592-3.2711 1.8531-1.1138 0.69388-2.067 1.4694-2.8396 2.3429-0.77262 0.86531-1.475 1.8204-2.1172 2.8571s-1.1138 2.2204-1.4349 3.5429c-0.32109 1.3224-0.48163 2.7184-0.48163 4.1878 0 2.4245 0.4415 4.6694 1.3145 6.7265 0.88299 2.0571 2.067 3.8204 3.552 5.298 1.485 1.4776 3.2611 2.7592 5.308 3.8694 2.0469 1.1102 4.2043 1.951 6.4719 2.5306 2.2677 0.58776 4.6156 0.98776 7.074 1.2v5.0122h7.9871v-5.0694c2.0269-0.22041 3.9534-0.53061 5.7896-0.93878 1.8362-0.40816 3.843-1.0939 6.0304-2.049 2.1874-0.9551 4.0738-2.1143 5.6692-3.4776s2.9801-3.1837 4.1541-5.4612c1.174-2.2776 1.8061-4.8408 1.9165-7.698h-12.693c-0.21071 1.5592-0.49167 2.8408-0.84286 3.8367-0.35119 0.99592-0.90306 1.9673-1.6757 2.9224-0.77262 0.9551-1.8362 1.7224-3.1908 2.3102-1.3546 0.58776-3.0704 1.0286-5.1474 1.3306v-19.951l5.1073-0.84082c1.8061-0.30204 3.5119-0.66122 5.1173-1.0694 1.5954-0.40816 3.4617-1.102 5.5889-2.0816 2.1272-0.97143 3.9233-2.1143 5.3883-3.4122 1.465-1.298 2.7293-3.0367 3.7929-5.2s1.5954-4.5959 1.5954-7.2816c0-4.0327-1.0736-7.551-3.231-10.563-2.1573-3.0122-5.2277-5.3959-9.2313-7.151-3.9935-1.7551-8.7095-2.8082-14.138-3.151v-5.0041h-7.9871zm0 47.894v17.804c-1.5452-0.17143-2.8798-0.40816-3.9935-0.71837-1.1138-0.30204-2.2376-0.76735-3.3514-1.3959-1.1138-0.62857-1.9566-1.5265-2.5185-2.6939-0.5619-1.1673-0.84286-2.5796-0.84286-4.2204 0-3.6408 1.6757-6.0898 5.0371-7.3469 0.90306-0.30204 2.7995-0.77551 5.6692-1.4286zm7.9971-33.6c1.174 0.089796 2.3078 0.22857 3.3915 0.42449 1.0937 0.19592 2.2878 0.53061 3.5922 1.0041 1.3044 0.47347 2.4082 1.0612 3.3112 1.7551 0.90306 0.69388 1.6757 1.6 2.3179 2.7265s0.96327 2.4163 0.96327 3.8694-0.33112 2.7429-1.0034 3.8694c-0.66224 1.1265-1.6757 2.0898-3.0403 2.8898-1.3546 0.8-2.7694 1.4694-4.2344 2.0163-1.465 0.53878-3.231 1.0694-5.308 1.5918v-20.147h0.010034z"/>
</g>
</g>
<path d="m99.688 48.136v1.656l-3.7381 0.11082c-2.4763 0.082872-4.0951 0.16962-5.8941 0.34164l-0.5198 0.051539c-6.48 0.576-11.304 2.088-14.976 4.68-3.456 2.376-5.256 5.976-5.256 10.512 0 3.96 1.368 7.416 3.96 9.792 2.88 2.664 6.984 3.96 12.456 3.96 5.904 0 9.936-1.224 13.968-4.32v3.312h13.968l-0.089061-0.83213c-0.28085-2.7355-0.40311-5.142-0.41412-8.829l-8.23e-4 -20.003c0-6.48-2.016-10.44-6.624-12.96-2.808-1.512-7.992-2.52-13.32-2.52-6.984 0-12.312 1.368-16.2 4.104-3.024 2.16-4.608 4.464-6.048 8.712l13.752 2.232c1.08-3.528 3.528-5.04 8.136-5.04 4.752 0 6.84 1.584 6.84 5.04zm0 12.888c0 2.16-0.936 4.104-2.592 5.544-1.944 1.656-5.184 2.736-8.136 2.736-3.744 0-5.904-1.512-5.904-4.104 0-2.088 1.584-3.888 4.176-4.752 2.952-0.936 6.048-1.296 12.456-1.44v2.016zm39.312 17.208v-2.304l-0.007488-0.27475c-0.018432-0.43085-0.064512-1.0644-0.064512-1.2372 4.68 3.888 8.208 5.112 14.184 5.112 6.336 0 11.232-1.872 14.976-5.616 4.176-4.392 6.408-10.584 6.408-18.288 0-14.256-7.632-22.608-20.736-22.608-5.976 0-10.584 1.656-14.832 5.4 0.072-1.008 0.072-1.656 0.072-2.736v-6.048c0-5.256 0.144-7.848 0.504-11.304h-14.616l0.085317 0.70386c0.36586 3.1223 0.49068 5.7066 0.49068 10.6v37.296c0 4.824-0.144 7.848-0.576 11.304h14.112zm21.528-22.464c0 7.632-4.176 12.744-10.44 12.744-6.192 0-10.944-5.4-10.944-12.528 0-6.984 4.68-12.024 11.232-12.024 6.336 0 10.152 4.464 10.152 11.808zm38.376-37.44h-15.048l0.085317 0.57077c0.36586 2.5923 0.49068 5.5418 0.49068 10.301l-0.001963 39.161c-0.018517 4.5126-0.17084 6.8466-0.57404 9.8706h15.048c-0.408-3.604-0.55911-6.2447-0.57464-10.166l-0.001358-38.866c0-4.896 0.144-7.848 0.576-10.872zm32.976 61.56c14.328 0 23.832-9.504 23.832-23.832 0-14.256-9.216-23.4-23.76-23.4s-23.76 9.144-23.76 23.544c0 14.472 9.216 23.688 23.688 23.688zm0.144-36.432c6.12 0 9.792 4.752 9.792 12.816 0 7.992-3.6 12.672-9.864 12.672s-10.008-4.824-10.008-12.816c0-7.92 3.744-12.672 10.08-12.672z"/>
</g>
</g>
</svg>
